<?xml version="1.0" standalone="no"?>
<svg viewBox="0 0 200 200" xmlns="http://www.w3.org/2000/svg">
                <mask id="mask0" mask-type="alpha">
  <path fill="#A1D3F2" d="M28.7,-49C39.1,-43.7,50.9,-39.9,58.7,-32C66.6,-24.1,70.6,-12,72.6,1.2C74.6,14.4,74.7,28.8,67.5,37.8C60.3,46.9,45.8,50.6,33.4,59.7C20.9,68.8,10.5,83.3,0.3,82.8C-9.9,82.4,-19.9,67,-32.6,58.1C-45.4,49.1,-60.9,46.6,-64.6,38C-68.3,29.4,-60.1,14.7,-56.2,2.2C-52.3,-10.2,-52.8,-20.5,-49.9,-30.4C-47,-40.4,-40.7,-50,-31.8,-56.2C-23,-62.4,-11.5,-65.1,-1.2,-63.1C9.1,-61.1,18.3,-54.3,28.7,-49Z" transform="translate(100 100)" />

                </mask>
                <g mask="url(#mask0)">
  <path fill="#A1D3F2" d="M28.7,-49C39.1,-43.7,50.9,-39.9,58.7,-32C66.6,-24.1,70.6,-12,72.6,1.2C74.6,14.4,74.7,28.8,67.5,37.8C60.3,46.9,45.8,50.6,33.4,59.7C20.9,68.8,10.5,83.3,0.3,82.8C-9.9,82.4,-19.9,67,-32.6,58.1C-45.4,49.1,-60.9,46.6,-64.6,38C-68.3,29.4,-60.1,14.7,-56.2,2.2C-52.3,-10.2,-52.8,-20.5,-49.9,-30.4C-47,-40.4,-40.7,-50,-31.8,-56.2C-23,-62.4,-11.5,-65.1,-1.2,-63.1C9.1,-61.1,18.3,-54.3,28.7,-49Z" transform="translate(100 100)" />

                  <image class="home__blob-img" href="assets/img/perfil.png" />
                </g>
              </svg>